<svg width="31" height="31" viewBox="0 0 31 31" fill="none" xmlns="http://www.w3.org/2000/svg">
<g clip-path="url(#clip0_11_54)">
<path d="M31 15.595C31 6.98087 24.0598 -0.00187683 15.5 -0.00187683C6.93622 6.0669e-05 -0.00390625 6.98087 -0.00390625 15.5969C-0.00390625 23.3799 5.66522 29.8317 13.0742 31.002V20.1036H9.14109V15.5969H13.0781V12.1579C13.0781 8.24994 15.3934 6.09156 18.9332 6.09156C20.6305 6.09156 22.4033 6.39575 22.4033 6.39575V10.232H20.4483C18.5244 10.232 17.9238 11.4352 17.9238 12.6694V15.595H22.2212L21.5353 20.1016H17.9218V31.0001C25.3308 29.8298 31 23.3779 31 15.595Z" fill="white"/>
</g>
<defs>
<clipPath id="clip0_11_54">
<rect width="31" height="31" fill="white"/>
</clipPath>
</defs>
</svg>
