<svg width="31" height="31" viewBox="0 0 31 31" fill="none" xmlns="http://www.w3.org/2000/svg">
<g clip-path="url(#clip0_11_56)">
<path d="M30.1184 12.7071C30.2992 13.7475 30.3893 14.8016 30.3878 15.8575C30.3878 20.5734 28.7021 24.5608 25.7688 27.2597H25.7726C23.2074 29.6293 19.6811 31.001 15.5 31.001C11.3891 31.001 7.44666 29.368 4.53985 26.4612C1.63303 23.5544 0 19.6119 0 15.501C0 11.3902 1.63303 7.44768 4.53985 4.54087C7.44666 1.63405 11.3891 0.00102278 15.5 0.00102278C19.3478 -0.0440403 23.0637 1.40151 25.8695 4.0349L21.4443 8.46015C19.8446 6.93529 17.7097 6.10026 15.5 6.13515C11.4564 6.13515 8.02125 8.86315 6.79675 12.5366C6.14751 14.4616 6.14751 16.5463 6.79675 18.4712H6.80256C8.03288 22.1389 11.4623 24.8669 15.5058 24.8669C17.5944 24.8669 19.3886 24.3321 20.7797 23.3866H20.7739C21.5816 22.8515 22.2726 22.1583 22.8051 21.3488C23.3375 20.5392 23.7005 19.6302 23.8719 18.6766H15.5V12.7091H30.1184V12.7071Z" fill="white"/>
</g>
<defs>
<clipPath id="clip0_11_56">
<rect width="31" height="31" fill="white"/>
</clipPath>
</defs>
</svg>
