<svg width="31" height="31" viewBox="0 0 31 31" fill="none" xmlns="http://www.w3.org/2000/svg">
<path d="M15.5 0C11.2937 0 10.7648 0.019375 9.11206 0.093C7.45938 0.1705 6.33369 0.430125 5.3475 0.81375C4.31306 1.20284 3.37608 1.81316 2.60206 2.60206C1.81365 3.37647 1.2034 4.31334 0.81375 5.3475C0.430125 6.33175 0.168563 7.45937 0.093 9.10625C0.019375 10.7628 0 11.2898 0 15.5019C0 19.7102 0.019375 20.2372 0.093 21.8899C0.1705 23.5406 0.430125 24.6663 0.81375 25.6525C1.21094 26.6716 1.73988 27.5357 2.60206 28.3979C3.46231 29.2601 4.32644 29.791 5.34556 30.1863C6.33369 30.5699 7.45744 30.8314 9.10819 30.907C10.7628 30.9806 11.2898 31 15.5 31C19.7102 31 20.2353 30.9806 21.8899 30.907C23.5387 30.8295 24.6683 30.5699 25.6544 30.1863C26.6882 29.797 27.6245 29.1866 28.3979 28.3979C29.2601 27.5357 29.7891 26.6716 30.1863 25.6525C30.5679 24.6663 30.8295 23.5406 30.907 21.8899C30.9806 20.2372 31 19.7102 31 15.5C31 11.2898 30.9806 10.7628 30.907 9.10819C30.8295 7.45938 30.5679 6.33175 30.1863 5.3475C29.7967 4.31331 29.1864 3.37643 28.3979 2.60206C27.6242 1.81287 26.6871 1.2025 25.6525 0.81375C24.6644 0.430125 23.5368 0.168563 21.8879 0.093C20.2333 0.019375 19.7083 0 15.4961 0H15.5019H15.5ZM14.1108 2.79387H15.5019C19.6404 2.79387 20.1306 2.80744 21.7639 2.883C23.2752 2.95081 24.0967 3.20463 24.6431 3.41581C25.3657 3.69675 25.8831 4.03387 26.4256 4.57638C26.9681 5.11888 27.3033 5.63425 27.5842 6.35888C27.7973 6.90331 28.0492 7.72481 28.117 9.23606C28.1926 10.8694 28.2081 11.3596 28.2081 15.4961C28.2081 19.6327 28.1926 20.1248 28.117 21.7581C28.0492 23.2694 27.7954 24.0889 27.5842 24.6353C27.3357 25.3083 26.9391 25.9168 26.4236 26.4159C25.8811 26.9584 25.3658 27.2936 24.6411 27.5745C24.0986 27.7876 23.2771 28.0395 21.7639 28.1093C20.1306 28.1829 19.6404 28.2003 15.5019 28.2003C11.3634 28.2003 10.8713 28.1829 9.238 28.1093C7.72675 28.0395 6.90719 27.7876 6.36081 27.5745C5.68753 27.3263 5.07843 26.9304 4.57831 26.4159C4.06245 25.9161 3.66521 25.307 3.41581 24.6334C3.20463 24.0889 2.95081 23.2674 2.883 21.7562C2.80938 20.1229 2.79387 19.6327 2.79387 15.4922C2.79387 11.3538 2.80938 10.8655 2.883 9.23219C2.95275 7.72094 3.20463 6.89944 3.41775 6.35306C3.69869 5.63037 4.03581 5.11306 4.57831 4.57056C5.12081 4.02806 5.63619 3.69288 6.36081 3.41194C6.90719 3.19881 7.72675 2.94694 9.238 2.87719C10.6679 2.81131 11.222 2.79194 14.1108 2.79V2.79387ZM23.7751 5.36688C23.5308 5.36688 23.2889 5.41499 23.0633 5.50846C22.8376 5.60193 22.6326 5.73894 22.4598 5.91166C22.2871 6.08437 22.1501 6.28942 22.0566 6.51508C21.9632 6.74075 21.9151 6.98262 21.9151 7.22687C21.9151 7.47113 21.9632 7.713 22.0566 7.93867C22.1501 8.16433 22.2871 8.36938 22.4598 8.54209C22.6326 8.71481 22.8376 8.85182 23.0633 8.94529C23.2889 9.03876 23.5308 9.08687 23.7751 9.08687C24.2684 9.08687 24.7415 8.89091 25.0903 8.54209C25.4391 8.19328 25.6351 7.72018 25.6351 7.22687C25.6351 6.73357 25.4391 6.26047 25.0903 5.91166C24.7415 5.56284 24.2684 5.36688 23.7751 5.36688ZM15.5019 7.54075C14.4461 7.52428 13.3976 7.718 12.4174 8.11065C11.4372 8.50329 10.5449 9.08701 9.79242 9.82782C9.03996 10.5686 8.44239 11.4517 8.0345 12.4257C7.62662 13.3997 7.41656 14.445 7.41656 15.501C7.41656 16.5569 7.62662 17.6023 8.0345 18.5762C8.44239 19.5502 9.03996 20.4333 9.79242 21.1741C10.5449 21.9149 11.4372 22.4986 12.4174 22.8913C13.3976 23.2839 14.4461 23.4777 15.5019 23.4612C17.5916 23.4286 19.5847 22.5756 21.0509 21.0863C22.5171 19.597 23.3389 17.5909 23.3389 15.501C23.3389 13.411 22.5171 11.4049 21.0509 9.91564C19.5847 8.42636 17.5916 7.57335 15.5019 7.54075ZM15.5019 10.3327C16.8724 10.3327 18.1867 10.8771 19.1558 11.8462C20.1248 12.8152 20.6693 14.1295 20.6693 15.5C20.6693 16.8705 20.1248 18.1848 19.1558 19.1538C18.1867 20.1229 16.8724 20.6673 15.5019 20.6673C14.1315 20.6673 12.8172 20.1229 11.8481 19.1538C10.879 18.1848 10.3346 16.8705 10.3346 15.5C10.3346 14.1295 10.879 12.8152 11.8481 11.8462C12.8172 10.8771 14.1315 10.3327 15.5019 10.3327Z" fill="white"/>
</svg>
