<svg width="80" height="80" viewBox="0 0 80 80" fill="none" xmlns="http://www.w3.org/2000/svg">
<circle cx="40" cy="40" r="38" fill="white" stroke="#061382" stroke-width="4"/>
<path d="M20 30C20 28.6739 20.5268 27.4021 21.4645 26.4645C22.4021 25.5268 23.6739 25 25 25H55C56.3261 25 57.5979 25.5268 58.5355 26.4645C59.4732 27.4021 60 28.6739 60 30V50C60 51.3261 59.4732 52.5979 58.5355 53.5355C57.5979 54.4732 56.3261 55 55 55H25C23.6739 55 22.4021 54.4732 21.4645 53.5355C20.5268 52.5979 20 51.3261 20 50V30ZM25 27.5C24.337 27.5 23.7011 27.7634 23.2322 28.2322C22.7634 28.7011 22.5 29.337 22.5 30V30.5425L40 41.0425L57.5 30.5425V30C57.5 29.337 57.2366 28.7011 56.7678 28.2322C56.2989 27.7634 55.663 27.5 55 27.5H25ZM57.5 33.4575L45.73 40.52L57.5 47.7625V33.4575ZM57.415 50.6475L43.315 41.97L40 43.9575L36.685 41.97L22.585 50.645C22.7271 51.177 23.0408 51.6472 23.4775 51.9826C23.9142 52.3181 24.4494 52.4999 25 52.5H55C55.5503 52.5001 56.0853 52.3186 56.5219 51.9836C56.9585 51.6487 57.2725 51.179 57.415 50.6475ZM22.5 47.7625L34.27 40.52L22.5 33.4575V47.7625Z" fill="#061382"/>
</svg>
