<svg width="80" height="80" viewBox="0 0 80 80" fill="none" xmlns="http://www.w3.org/2000/svg">
<circle cx="40" cy="40" r="38" fill="white" stroke="#061382" stroke-width="4"/>
<g clip-path="url(#clip0_12_91)">
<path d="M47.5 22.5C48.163 22.5 48.7989 22.7634 49.2678 23.2322C49.7366 23.7011 50 24.337 50 25V55C50 55.663 49.7366 56.2989 49.2678 56.7678C48.7989 57.2366 48.163 57.5 47.5 57.5H32.5C31.837 57.5 31.2011 57.2366 30.7322 56.7678C30.2634 56.2989 30 55.663 30 55V25C30 24.337 30.2634 23.7011 30.7322 23.2322C31.2011 22.7634 31.837 22.5 32.5 22.5H47.5ZM32.5 20C31.1739 20 29.9021 20.5268 28.9645 21.4645C28.0268 22.4021 27.5 23.6739 27.5 25V55C27.5 56.3261 28.0268 57.5979 28.9645 58.5355C29.9021 59.4732 31.1739 60 32.5 60H47.5C48.8261 60 50.0979 59.4732 51.0355 58.5355C51.9732 57.5979 52.5 56.3261 52.5 55V25C52.5 23.6739 51.9732 22.4021 51.0355 21.4645C50.0979 20.5268 48.8261 20 47.5 20H32.5Z" fill="#061382"/>
<path d="M40 55C40.663 55 41.2989 54.7366 41.7678 54.2678C42.2366 53.7989 42.5 53.163 42.5 52.5C42.5 51.837 42.2366 51.2011 41.7678 50.7322C41.2989 50.2634 40.663 50 40 50C39.337 50 38.7011 50.2634 38.2322 50.7322C37.7634 51.2011 37.5 51.837 37.5 52.5C37.5 53.163 37.7634 53.7989 38.2322 54.2678C38.7011 54.7366 39.337 55 40 55Z" fill="#061382"/>
</g>
<defs>
<clipPath id="clip0_12_91">
<rect width="40" height="40" fill="white" transform="translate(20 20)"/>
</clipPath>
</defs>
</svg>
