<svg width="41" height="50" viewBox="0 0 41 50" fill="none" xmlns="http://www.w3.org/2000/svg">
<g clip-path="url(#clip0_6_920)">
<path d="M13.3037 50.9345C13.0788 50.9361 12.8558 50.8826 12.6476 50.777C12.4394 50.6714 12.25 50.5158 12.0903 50.3191C11.9302 50.1219 11.803 49.8872 11.7163 49.6286C11.6295 49.3701 11.5848 49.0927 11.5848 48.8126C11.5848 48.5325 11.6295 48.2551 11.7163 47.9966C11.803 47.738 11.9302 47.5033 12.0903 47.306L26.0525 29.97C27.0125 28.7765 27.5518 27.1585 27.5518 25.4716C27.5518 23.7847 27.0125 22.1667 26.0525 20.9731L12.0903 3.63715C11.7685 3.23758 11.5878 2.69566 11.5878 2.13059C11.5878 1.56552 11.7685 1.0236 12.0903 0.624036C12.4121 0.224472 12.8486 0 13.3037 0C13.7588 0 14.1952 0.224472 14.5171 0.624036L28.4792 17.96C29.2749 18.9456 29.9062 20.1163 30.337 21.4053C30.7678 22.6943 30.9895 24.0761 30.9895 25.4716C30.9895 26.8671 30.7678 28.2489 30.337 29.5379C29.9062 30.8268 29.2749 31.9976 28.4792 32.9832L14.5171 50.3191C14.3574 50.5158 14.168 50.6714 13.9598 50.777C13.7516 50.8826 13.5286 50.9361 13.3037 50.9345Z" fill="black"/>
</g>
<defs>
<clipPath id="clip0_6_920">
<rect width="40.5471" height="49.6468" fill="white"/>
</clipPath>
</defs>
</svg>
