<svg width="41" height="51" viewBox="0 0 41 51" fill="none" xmlns="http://www.w3.org/2000/svg">
<g clip-path="url(#clip0_6_922)">
<path d="M29.0081 50.2625C28.7857 50.2641 28.5653 50.2113 28.3595 50.1072C28.1536 50.0031 27.9664 49.8497 27.8085 49.6558L14.0056 32.5654C13.219 31.5938 12.5948 30.4397 12.169 29.169C11.7431 27.8983 11.5239 26.536 11.5239 25.1603C11.5239 23.7845 11.7431 22.4223 12.169 21.1516C12.5948 19.8809 13.219 18.7267 14.0056 17.7551L27.8085 0.664725C27.9661 0.469684 28.1531 0.314969 28.3589 0.209414C28.5647 0.103859 28.7853 0.04953 29.0081 0.04953C29.2308 0.04953 29.4514 0.103859 29.6572 0.209414C29.863 0.314969 30.05 0.469684 30.2076 0.664725C30.3651 0.859766 30.49 1.09131 30.5753 1.34615C30.6605 1.60098 30.7044 1.87411 30.7044 2.14994C30.7044 2.42577 30.6605 2.6989 30.5753 2.95373C30.49 3.20856 30.3651 3.44011 30.2076 3.63515L16.4047 20.7256C15.4555 21.9022 14.9224 23.4973 14.9224 25.1603C14.9224 26.8233 15.4555 28.4183 16.4047 29.595L30.2076 46.6854C30.3659 46.8799 30.4916 47.1112 30.5774 47.3661C30.6632 47.6211 30.7073 47.8945 30.7073 48.1706C30.7073 48.4468 30.6632 48.7202 30.5774 48.9751C30.4916 49.23 30.3659 49.4614 30.2076 49.6558C30.0497 49.8497 29.8625 50.0031 29.6566 50.1072C29.4508 50.2113 29.2304 50.2641 29.0081 50.2625Z" fill="black"/>
</g>
<defs>
<clipPath id="clip0_6_922">
<rect width="40.5471" height="50.2044" fill="white" transform="translate(0 0.0582886)"/>
</clipPath>
</defs>
</svg>
