<svg width="31" height="31" viewBox="0 0 31 31" fill="none" xmlns="http://www.w3.org/2000/svg">
<path d="M9.73787 31C21.4365 31 27.8361 19.0704 27.8361 8.74319C27.8361 8.40936 27.8361 8.07076 27.8244 7.73693C29.0704 6.62692 30.1457 5.25266 31 3.67853C29.8362 4.31007 28.6028 4.72629 27.3401 4.9137C28.6702 3.93519 29.6665 2.3956 30.1436 0.581083C28.8939 1.49225 27.5261 2.13189 26.1001 2.47198C25.1414 1.21541 23.8727 0.382975 22.4907 0.103607C21.1086 -0.17576 19.6903 0.113536 18.4553 0.926685C17.2204 1.73983 16.2378 3.03145 15.6597 4.60147C15.0817 6.1715 14.9404 7.9323 15.2578 9.61114C12.7289 9.45508 10.2548 8.64654 7.99615 7.23796C5.73746 5.82938 3.74458 3.85223 2.14675 1.43473C1.3356 3.15891 1.08805 5.19841 1.45438 7.13906C1.8207 9.07971 2.77344 10.776 4.11912 11.8836C3.11073 11.8414 2.12451 11.5081 1.24 10.9107V11.018C1.24174 12.8242 1.75016 14.5743 2.67932 15.9724C3.60848 17.3705 4.90139 18.3309 6.3395 18.6913C5.79363 18.8763 5.22976 18.9686 4.66356 18.9655C4.26441 18.967 3.86605 18.9215 3.47394 18.8296C3.8804 20.3844 4.67184 21.7438 5.73742 22.7174C6.80299 23.691 8.08932 24.2301 9.41625 24.2591C7.16208 26.438 4.37759 27.6198 1.51125 27.614C1.00618 27.6166 0.50147 27.5808 0 27.5067C2.90918 29.7893 6.28776 31.0013 9.73787 31Z" fill="white"/>
</svg>
